# xmcd
#
# Track frame offsets:
# 150
# 16932
# 31112
# 44497
# 59825
# 74315
# 85837
# 99260
# 115297
# 126910
# 142302
# 156522
#
# Disc length: 2295 seconds
#
#
# Revision: 0
# Processed by: cddbd v1.5.1PL2 Copyright (c) Steve Scherf et al.
# Submitted via: FreeRIP 2.944 
#
DISCID=ac08f50c
DTITLE=Zé do Cedro e João do Pinho - Sertão Querido
DYEAR=1900
DGENRE=Sertanejo
TTITLE0=Sertão querido
TTITLE1=Lampião a querosene
TTITLE2=Arroz com galinha
TTITLE3=Pescador
TTITLE4=Exemplo de cão
TTITLE5=Roteiro do passado
TTITLE6=O narrador gago
TTITLE7=Uma prota e uma janela
TTITLE8=Cama de areia
TTITLE9=Fazenda bom sucesso
TTITLE10=Boiadeiro apaixonado
TTITLE11=Rosa
EXTD=
EXTT0=
EXTT1=
EXTT2=
EXTT3=
EXTT4=
EXTT5=
EXTT6=
EXTT7=
EXTT8=
EXTT9=
EXTT10=
EXTT11=
PLAYORDER=
